<?xml version="1.0" encoding="utf-8"?>
<!-- Generator: Adobe Illustrator 26.5.0, SVG Export Plug-In . SVG Version: 6.00 Build 0)  -->
<svg version="1.1" id="Layer_1" xmlns="http://www.w3.org/2000/svg" xmlns:xlink="http://www.w3.org/1999/xlink" x="0px" y="0px"
	 viewBox="0 0 119 56" style="enable-background:new 0 0 119 56;" xml:space="preserve">
<style type="text/css">
	.st0{fill:#1A2B32;}
</style>
<g>
	<path id="XMLID_57_" class="st0" d="M16.7,16.7H0V1.1C0,0.5,0.5,0,1.1,0h15.5V16.7z"/>
	<path id="XMLID_56_" class="st0" d="M30.9,16.7H20.2V5.9h10c0.4,0,0.7,0.3,0.7,0.7V16.7z"/>
	<path id="XMLID_55_" class="st0" d="M16.7,34.3H3.4c-0.5,0-1-0.4-1-1V20.1h14.3V34.3z"/>
	<g id="XMLID_19_">
		<path id="XMLID_54_" class="st0" d="M29.1,42.7c-0.2-0.3-0.4-0.5-0.6-0.7c-0.3-0.2-0.6-0.4-0.9-0.5c-0.3-0.1-0.7-0.2-1-0.2
			c-0.7,0-1.2,0.1-1.7,0.4c-0.5,0.3-0.8,0.6-1.1,1c-0.3,0.4-0.5,0.9-0.6,1.5c-0.1,0.5-0.2,1.1-0.2,1.7c0,0.6,0.1,1.1,0.2,1.6
			c0.1,0.5,0.3,1,0.6,1.4c0.3,0.4,0.7,0.8,1.1,1c0.5,0.3,1,0.4,1.7,0.4c0.9,0,1.6-0.3,2.1-0.8c0.5-0.5,0.8-1.3,0.9-2.1h2.8
			c-0.1,0.8-0.3,1.6-0.6,2.2c-0.3,0.7-0.7,1.2-1.2,1.7c-0.5,0.5-1.1,0.8-1.8,1.1c-0.7,0.2-1.4,0.4-2.2,0.4c-1,0-1.9-0.2-2.7-0.5
			c-0.8-0.4-1.5-0.8-2-1.5c-0.6-0.6-1-1.3-1.3-2.2c-0.3-0.8-0.4-1.7-0.4-2.7c0-1,0.1-1.9,0.4-2.7c0.3-0.8,0.7-1.6,1.3-2.2
			c0.6-0.6,1.2-1.1,2-1.5c0.8-0.4,1.7-0.5,2.7-0.5c0.7,0,1.4,0.1,2.1,0.3c0.6,0.2,1.2,0.5,1.7,0.9c0.5,0.4,0.9,0.9,1.3,1.5
			c0.3,0.6,0.5,1.3,0.6,2h-2.8C29.4,43.3,29.2,43,29.1,42.7z"/>
		<path id="XMLID_51_" class="st0" d="M34.4,45.5c0.2-0.6,0.6-1.2,1-1.6c0.4-0.4,0.9-0.8,1.6-1c0.6-0.2,1.3-0.4,2-0.4
			c0.8,0,1.4,0.1,2,0.4c0.6,0.2,1.1,0.6,1.6,1c0.4,0.4,0.8,1,1,1.6c0.2,0.6,0.4,1.3,0.4,2.1c0,0.8-0.1,1.5-0.4,2.1
			c-0.2,0.6-0.6,1.1-1,1.6c-0.4,0.4-1,0.8-1.6,1c-0.6,0.2-1.3,0.4-2,0.4c-0.8,0-1.4-0.1-2-0.4c-0.6-0.2-1.1-0.6-1.6-1
			c-0.4-0.4-0.8-1-1-1.6c-0.2-0.6-0.4-1.3-0.4-2.1C34,46.9,34.1,46.2,34.4,45.5z M36.8,48.7c0.1,0.4,0.2,0.7,0.4,1
			c0.2,0.3,0.4,0.5,0.7,0.7c0.3,0.2,0.7,0.3,1.1,0.3c0.4,0,0.8-0.1,1.1-0.3c0.3-0.2,0.5-0.4,0.7-0.7c0.2-0.3,0.3-0.6,0.4-1
			c0.1-0.4,0.1-0.7,0.1-1.1c0-0.4,0-0.8-0.1-1.1s-0.2-0.7-0.4-1c-0.2-0.3-0.4-0.5-0.7-0.7c-0.3-0.2-0.7-0.3-1.1-0.3
			c-0.4,0-0.8,0.1-1.1,0.3c-0.3,0.2-0.5,0.4-0.7,0.7c-0.2,0.3-0.3,0.6-0.4,1c-0.1,0.4-0.1,0.7-0.1,1.1C36.6,48,36.7,48.4,36.8,48.7z
			"/>
		<path id="XMLID_48_" class="st0" d="M59.6,50.1c0.4,0.4,1,0.6,1.7,0.6c0.5,0,1-0.1,1.4-0.4c0.4-0.3,0.6-0.5,0.7-0.8h2.3
			c-0.4,1.1-0.9,2-1.7,2.5c-0.8,0.5-1.7,0.7-2.8,0.7c-0.8,0-1.4-0.1-2-0.4s-1.1-0.6-1.5-1c-0.4-0.4-0.7-1-1-1.6
			c-0.2-0.6-0.3-1.3-0.3-2c0-0.7,0.1-1.4,0.4-2c0.2-0.6,0.6-1.1,1-1.6c0.4-0.5,0.9-0.8,1.5-1.1c0.6-0.3,1.3-0.4,2-0.4
			c0.8,0,1.5,0.2,2.1,0.5c0.6,0.3,1.1,0.7,1.5,1.3c0.4,0.5,0.7,1.1,0.8,1.8c0.2,0.7,0.2,1.4,0.2,2.1H59C59,49.1,59.3,49.7,59.6,50.1
			z M62.6,45.1c-0.3-0.3-0.8-0.5-1.4-0.5c-0.4,0-0.8,0.1-1,0.2c-0.3,0.1-0.5,0.3-0.7,0.5c-0.2,0.2-0.3,0.4-0.4,0.7
			c-0.1,0.2-0.1,0.4-0.1,0.6h4.3C63.2,45.9,62.9,45.4,62.6,45.1z"/>
		<path id="XMLID_45_" class="st0" d="M76.8,53.1c-0.1,0.5-0.3,1-0.7,1.4c-0.3,0.4-0.8,0.8-1.5,1.1C73.9,55.9,73.1,56,72,56
			c-0.5,0-0.9-0.1-1.4-0.2c-0.5-0.1-0.9-0.3-1.3-0.5c-0.4-0.2-0.7-0.6-1-1c-0.3-0.4-0.4-0.9-0.5-1.4h2.6c0.1,0.5,0.4,0.8,0.7,1
			c0.4,0.2,0.8,0.3,1.2,0.3c0.7,0,1.3-0.2,1.6-0.7c0.3-0.4,0.5-1,0.5-1.7v-1.3h0c-0.3,0.5-0.7,0.9-1.2,1.1c-0.5,0.2-1.1,0.4-1.7,0.4
			c-0.7,0-1.3-0.1-1.8-0.4c-0.5-0.3-0.9-0.6-1.3-1c-0.3-0.4-0.6-0.9-0.7-1.5c-0.2-0.6-0.2-1.2-0.2-1.9c0-0.6,0.1-1.2,0.3-1.8
			c0.2-0.6,0.4-1.1,0.8-1.5c0.3-0.4,0.8-0.8,1.3-1c0.5-0.3,1.1-0.4,1.8-0.4c0.6,0,1.2,0.1,1.7,0.4c0.5,0.2,0.9,0.6,1.2,1.2h0v-1.3
			h2.5v8.9C76.9,52.2,76.9,52.6,76.8,53.1z M73.2,49.9c0.3-0.1,0.5-0.3,0.7-0.6c0.2-0.2,0.3-0.5,0.4-0.8c0.1-0.3,0.1-0.6,0.1-1
			c0-0.4,0-0.8-0.1-1.1c-0.1-0.4-0.2-0.7-0.4-0.9c-0.2-0.3-0.4-0.5-0.7-0.6c-0.3-0.2-0.6-0.2-1.1-0.2c-0.4,0-0.7,0.1-1,0.2
			c-0.3,0.1-0.5,0.3-0.7,0.6c-0.2,0.3-0.3,0.5-0.4,0.9c-0.1,0.3-0.1,0.7-0.1,1c0,0.3,0,0.7,0.1,1c0.1,0.3,0.2,0.6,0.4,0.9
			c0.2,0.3,0.4,0.5,0.7,0.7s0.6,0.3,1,0.3C72.6,50.1,72.9,50.1,73.2,49.9z"/>
		<path id="XMLID_42_" class="st0" d="M82.1,50.1c0.4,0.4,1,0.6,1.7,0.6c0.5,0,1-0.1,1.4-0.4c0.4-0.3,0.6-0.5,0.7-0.8h2.3
			c-0.4,1.1-0.9,2-1.7,2.5c-0.8,0.5-1.7,0.7-2.8,0.7c-0.8,0-1.4-0.1-2-0.4s-1.1-0.6-1.5-1c-0.4-0.4-0.7-1-1-1.6
			c-0.2-0.6-0.3-1.3-0.3-2c0-0.7,0.1-1.4,0.4-2c0.2-0.6,0.6-1.1,1-1.6c0.4-0.5,0.9-0.8,1.5-1.1c0.6-0.3,1.3-0.4,2-0.4
			c0.8,0,1.5,0.2,2.1,0.5c0.6,0.3,1.1,0.7,1.5,1.3c0.4,0.5,0.7,1.1,0.8,1.8c0.2,0.7,0.2,1.4,0.2,2.1h-6.9
			C81.5,49.1,81.7,49.7,82.1,50.1z M85.1,45.1c-0.3-0.3-0.8-0.5-1.4-0.5c-0.4,0-0.8,0.1-1,0.2c-0.3,0.1-0.5,0.3-0.7,0.5
			c-0.2,0.2-0.3,0.4-0.4,0.7c-0.1,0.2-0.1,0.4-0.1,0.6h4.3C85.6,45.9,85.4,45.4,85.1,45.1z"/>
		<rect id="XMLID_41_" x="51.6" y="39.2" class="st0" width="2.7" height="13.2"/>
		<rect id="XMLID_40_" x="46" y="39.2" class="st0" width="2.7" height="13.2"/>
		<path id="XMLID_37_" class="st0" d="M40.2,33c-0.3,0.6-0.8,1-1.3,1.2c-0.5,0.2-1.1,0.4-1.8,0.4c-0.8,0-1.5-0.2-2-0.5
			c-0.6-0.3-1.1-0.7-1.4-1.2c-0.4-0.5-0.7-1.1-0.9-1.8c-0.2-0.7-0.3-1.4-0.3-2.1c0-0.7,0.1-1.4,0.3-2c0.2-0.6,0.5-1.2,0.9-1.7
			c0.4-0.5,0.9-0.9,1.4-1.2c0.6-0.3,1.2-0.4,2-0.4c0.6,0,1.2,0.1,1.7,0.4c0.6,0.3,1,0.6,1.3,1.1h0v-5.2h2.8v14.3h-2.7L40.2,33
			L40.2,33z M40.1,27.9c-0.1-0.4-0.2-0.7-0.4-1c-0.2-0.3-0.4-0.5-0.7-0.7c-0.3-0.2-0.7-0.3-1.2-0.3c-0.5,0-0.9,0.1-1.2,0.3
			c-0.3,0.2-0.6,0.4-0.8,0.7c-0.2,0.3-0.3,0.7-0.4,1.1c-0.1,0.4-0.1,0.8-0.1,1.2c0,0.4,0,0.8,0.1,1.2c0.1,0.4,0.2,0.8,0.4,1.1
			c0.2,0.3,0.5,0.6,0.8,0.8c0.3,0.2,0.7,0.3,1.1,0.3c0.5,0,0.9-0.1,1.2-0.3c0.3-0.2,0.6-0.4,0.7-0.7c0.2-0.3,0.3-0.7,0.4-1.1
			c0.1-0.4,0.1-0.8,0.1-1.2C40.2,28.7,40.1,28.3,40.1,27.9z"/>
		<path id="XMLID_36_" class="st0" d="M54.3,24v1.4h0.1c0.4-0.6,0.8-1,1.4-1.3c0.6-0.3,1.2-0.4,1.8-0.4c0.8,0,1.4,0.1,1.9,0.3
			c0.5,0.2,0.9,0.5,1.1,0.9c0.3,0.4,0.5,0.8,0.6,1.3c0.1,0.5,0.2,1.1,0.2,1.8v6.4h-2.8v-5.8c0-0.9-0.1-1.5-0.4-1.9
			c-0.3-0.4-0.7-0.6-1.4-0.6c-0.8,0-1.3,0.2-1.7,0.7c-0.3,0.5-0.7,1.2-0.7,2.3v5.4h-2.7V24H54.3z"/>
		<path id="XMLID_33_" class="st0" d="M66.7,20.1v5.2h0c0.3-0.5,0.8-0.9,1.4-1.2c0.6-0.2,1.2-0.4,1.8-0.4c0.5,0,1,0.1,1.5,0.3
			c0.5,0.2,1,0.5,1.4,1c0.4,0.4,0.7,1,1,1.7c0.3,0.7,0.4,1.5,0.4,2.4c0,0.9-0.1,1.8-0.4,2.4c-0.3,0.7-0.6,1.2-1,1.7
			c-0.4,0.4-0.9,0.8-1.4,1c-0.5,0.2-1,0.3-1.5,0.3c-0.8,0-1.4-0.1-2-0.4c-0.6-0.2-1.1-0.6-1.4-1.2h0v1.3h-2.7V20.1H66.7z M71.3,27.9
			c-0.1-0.4-0.2-0.8-0.4-1.1c-0.2-0.3-0.4-0.5-0.7-0.7c-0.3-0.2-0.7-0.3-1.1-0.3c-0.4,0-0.8,0.1-1.1,0.3c-0.3,0.2-0.6,0.4-0.8,0.7
			c-0.2,0.3-0.3,0.7-0.4,1.1c-0.1,0.4-0.1,0.8-0.1,1.3c0,0.4,0,0.8,0.1,1.2c0.1,0.4,0.2,0.8,0.4,1.1c0.2,0.3,0.5,0.5,0.8,0.7
			c0.3,0.2,0.7,0.3,1.1,0.3c0.4,0,0.8-0.1,1.1-0.3c0.3-0.2,0.5-0.4,0.7-0.7c0.2-0.3,0.3-0.7,0.4-1.1c0.1-0.4,0.1-0.8,0.1-1.2
			C71.4,28.7,71.4,28.3,71.3,27.9z"/>
		<path id="XMLID_29_" class="st0" d="M83.3,34.3v-1.4h-0.1c-0.4,0.6-0.8,1-1.4,1.3c-0.6,0.3-1.2,0.4-1.8,0.4
			c-0.8,0-1.4-0.1-1.9-0.3c-0.5-0.2-0.9-0.5-1.1-0.9c-0.3-0.4-0.5-0.8-0.6-1.3c-0.1-0.5-0.2-1.1-0.2-1.7V24h2.8v5.8
			c0,0.9,0.1,1.5,0.4,1.9c0.3,0.4,0.7,0.6,1.4,0.6c0.8,0,1.3-0.2,1.7-0.7c0.3-0.5,0.5-1.2,0.5-2.3V24H86v10.3H83.3z"/>
		<path id="XMLID_28_" class="st0" d="M91,24v1.9h0c0.1-0.3,0.3-0.6,0.5-0.9c0.2-0.3,0.5-0.5,0.8-0.7c0.3-0.2,0.6-0.3,0.9-0.4
			c0.3-0.1,0.7-0.2,1-0.2c0.2,0,0.4,0,0.6,0.1v2.6c-0.1,0-0.3,0-0.5-0.1c-0.2,0-0.4,0-0.5,0c-0.5,0-1,0.1-1.3,0.3
			c-0.4,0.2-0.6,0.4-0.9,0.7c-0.2,0.3-0.4,0.6-0.5,1c-0.1,0.4-0.1,0.8-0.1,1.3v4.7h-2.8V24H91z"/>
		<path id="XMLID_25_" class="st0" d="M106.3,35.1c-0.1,0.5-0.4,1-0.7,1.5c-0.4,0.5-0.9,0.8-1.6,1.2c-0.7,0.3-1.7,0.5-2.8,0.5
			c-0.5,0-1-0.1-1.5-0.2c-0.5-0.1-1-0.3-1.4-0.6c-0.4-0.3-0.8-0.6-1.1-1c-0.3-0.4-0.4-0.9-0.5-1.5h2.8c0.1,0.5,0.4,0.9,0.8,1.1
			c0.4,0.2,0.8,0.3,1.3,0.3c0.8,0,1.4-0.2,1.7-0.7c0.4-0.5,0.5-1.1,0.5-1.8v-1.4h0c-0.3,0.5-0.7,0.9-1.3,1.2
			c-0.6,0.3-1.2,0.4-1.8,0.4c-0.8,0-1.4-0.1-2-0.4c-0.6-0.3-1-0.6-1.4-1.1c-0.4-0.5-0.6-1-0.8-1.7c-0.2-0.6-0.3-1.3-0.3-2
			c0-0.7,0.1-1.3,0.3-1.9c0.2-0.6,0.5-1.2,0.9-1.6c0.4-0.5,0.8-0.8,1.4-1.1c0.6-0.3,1.2-0.4,1.9-0.4c0.7,0,1.3,0.1,1.8,0.4
			c0.5,0.3,0.9,0.7,1.3,1.3h0V24h2.7v9.7C106.4,34.1,106.4,34.6,106.3,35.1z M102.4,31.7c0.3-0.2,0.6-0.4,0.8-0.6
			c0.2-0.3,0.4-0.6,0.4-0.9c0.1-0.3,0.1-0.7,0.1-1.1c0-0.4,0-0.8-0.1-1.2c-0.1-0.4-0.2-0.7-0.4-1c-0.2-0.3-0.4-0.5-0.7-0.7
			c-0.3-0.2-0.7-0.3-1.2-0.3c-0.4,0-0.7,0.1-1,0.2c-0.3,0.2-0.5,0.4-0.7,0.6c-0.2,0.3-0.3,0.6-0.4,0.9C99.1,28,99,28.4,99,28.8
			c0,0.4,0,0.7,0.1,1.1c0.1,0.4,0.2,0.7,0.4,1c0.2,0.3,0.4,0.5,0.7,0.7c0.3,0.2,0.7,0.3,1.1,0.3C101.7,31.9,102.1,31.8,102.4,31.7z"
			/>
		<path id="XMLID_24_" class="st0" d="M111.6,20.1v5.4h0.1c0.4-0.6,0.8-1,1.4-1.3s1.1-0.4,1.6-0.4c0.8,0,1.4,0.1,1.9,0.3
			c0.5,0.2,0.9,0.5,1.1,0.9c0.3,0.4,0.5,0.8,0.6,1.3c0.1,0.5,0.2,1.1,0.2,1.8v6.4h-2.8v-5.8c0-0.9-0.1-1.5-0.4-1.9
			c-0.3-0.4-0.7-0.6-1.4-0.6c-0.8,0-1.3,0.2-1.7,0.7c-0.3,0.5-0.5,1.2-0.5,2.3v5.4h-2.8V20.1H111.6z"/>
		<rect id="XMLID_23_" x="46" y="20.1" class="st0" width="2.7" height="2.3"/>
		<rect id="XMLID_22_" x="46" y="24" class="st0" width="2.7" height="10.3"/>
		<path id="XMLID_20_" class="st0" d="M28.8,34.3L28.8,34.3c2.2,0,2.2-2.2,2.2-2.2v-0.5h-7.7v-3.5h6.9v-2.4h-6.9v-3.1h7.5v-2.6H20.1
			v14.3h7.4H28.8z"/>
	</g>
</g>
</svg>
